<svg width="95" height="44" viewBox="0 0 95 44" fill="none" xmlns="http://www.w3.org/2000/svg">
<path d="M18.373 17.3916L14.8926 28H12.0889L16.8438 15.2031H18.6279L18.373 17.3916ZM21.2646 28L17.7754 17.3916L17.4941 15.2031H19.2959L24.0771 28H21.2646ZM21.1064 23.2363V25.3018H14.3477V23.2363H21.1064ZM25.2285 26.7783C25.2285 26.4033 25.3574 26.0898 25.6152 25.8379C25.8789 25.5859 26.2275 25.46 26.6611 25.46C27.0947 25.46 27.4404 25.5859 27.6982 25.8379C27.9619 26.0898 28.0938 26.4033 28.0938 26.7783C28.0938 27.1533 27.9619 27.4668 27.6982 27.7188C27.4404 27.9707 27.0947 28.0967 26.6611 28.0967C26.2275 28.0967 25.8789 27.9707 25.6152 27.7188C25.3574 27.4668 25.2285 27.1533 25.2285 26.7783ZM41.6289 24.6514C41.6289 24.4229 41.5938 24.2178 41.5234 24.0361C41.459 23.8486 41.3359 23.6787 41.1543 23.5264C40.9727 23.3682 40.7178 23.2129 40.3896 23.0605C40.0615 22.9082 39.6367 22.75 39.1152 22.5859C38.5352 22.3984 37.9844 22.1875 37.4629 21.9531C36.9473 21.7188 36.4902 21.4463 36.0918 21.1357C35.6992 20.8193 35.3887 20.4531 35.1602 20.0371C34.9375 19.6211 34.8262 19.1377 34.8262 18.5869C34.8262 18.0537 34.9434 17.5703 35.1777 17.1367C35.4121 16.6973 35.7402 16.3223 36.1621 16.0117C36.584 15.6953 37.082 15.4521 37.6562 15.2822C38.2363 15.1123 38.8721 15.0273 39.5635 15.0273C40.5068 15.0273 41.3301 15.1973 42.0332 15.5371C42.7363 15.877 43.2812 16.3428 43.668 16.9346C44.0605 17.5264 44.2568 18.2031 44.2568 18.9648H41.6377C41.6377 18.5898 41.5586 18.2617 41.4004 17.9805C41.248 17.6934 41.0137 17.4678 40.6973 17.3037C40.3867 17.1396 39.9941 17.0576 39.5195 17.0576C39.0625 17.0576 38.6816 17.1279 38.377 17.2686C38.0723 17.4033 37.8438 17.5879 37.6914 17.8223C37.5391 18.0508 37.4629 18.3086 37.4629 18.5957C37.4629 18.8125 37.5156 19.0088 37.6211 19.1846C37.7324 19.3604 37.8965 19.5244 38.1133 19.6768C38.3301 19.8291 38.5967 19.9727 38.9131 20.1074C39.2295 20.2422 39.5957 20.374 40.0117 20.5029C40.709 20.7139 41.3213 20.9512 41.8486 21.2148C42.3818 21.4785 42.8271 21.7744 43.1846 22.1025C43.542 22.4307 43.8115 22.8027 43.9932 23.2188C44.1748 23.6348 44.2656 24.1064 44.2656 24.6338C44.2656 25.1904 44.1572 25.6885 43.9404 26.1279C43.7236 26.5674 43.4102 26.9395 43 27.2441C42.5898 27.5488 42.1006 27.7803 41.5322 27.9385C40.9639 28.0967 40.3281 28.1758 39.625 28.1758C38.9922 28.1758 38.3682 28.0938 37.7529 27.9297C37.1377 27.7598 36.5781 27.5049 36.0742 27.165C35.5762 26.8252 35.1777 26.3916 34.8789 25.8643C34.5801 25.3369 34.4307 24.7129 34.4307 23.9922H37.0762C37.0762 24.3906 37.1377 24.7275 37.2607 25.0029C37.3838 25.2783 37.5566 25.501 37.7793 25.6709C38.0078 25.8408 38.2773 25.9639 38.5879 26.04C38.9043 26.1162 39.25 26.1543 39.625 26.1543C40.082 26.1543 40.457 26.0898 40.75 25.9609C41.0488 25.832 41.2686 25.6533 41.4092 25.4248C41.5557 25.1963 41.6289 24.9385 41.6289 24.6514ZM51.0332 25.8555V21.6191C51.0332 21.3145 50.9834 21.0537 50.8838 20.8369C50.7842 20.6143 50.6289 20.4414 50.418 20.3184C50.2129 20.1953 49.9463 20.1338 49.6182 20.1338C49.3369 20.1338 49.0938 20.1836 48.8887 20.2832C48.6836 20.377 48.5254 20.5146 48.4141 20.6963C48.3027 20.8721 48.2471 21.0801 48.2471 21.3203H45.7158C45.7158 20.916 45.8096 20.5322 45.9971 20.1689C46.1846 19.8057 46.457 19.4863 46.8145 19.2109C47.1719 18.9297 47.5967 18.71 48.0889 18.5518C48.5869 18.3936 49.1436 18.3145 49.7588 18.3145C50.4971 18.3145 51.1533 18.4375 51.7275 18.6836C52.3018 18.9297 52.7529 19.2988 53.0811 19.791C53.415 20.2832 53.582 20.8984 53.582 21.6367V25.7061C53.582 26.2275 53.6143 26.6553 53.6787 26.9893C53.7432 27.3174 53.8369 27.6045 53.96 27.8506V28H51.4023C51.2793 27.7422 51.1855 27.4199 51.1211 27.0332C51.0625 26.6406 51.0332 26.248 51.0332 25.8555ZM51.3672 22.208L51.3848 23.6406H49.9697C49.6357 23.6406 49.3457 23.6787 49.0996 23.7549C48.8535 23.8311 48.6514 23.9395 48.4932 24.0801C48.335 24.2148 48.2178 24.373 48.1416 24.5547C48.0713 24.7363 48.0361 24.9355 48.0361 25.1523C48.0361 25.3691 48.0859 25.5654 48.1855 25.7412C48.2852 25.9111 48.4287 26.0459 48.6162 26.1455C48.8037 26.2393 49.0234 26.2861 49.2754 26.2861C49.6562 26.2861 49.9873 26.21 50.2686 26.0576C50.5498 25.9053 50.7666 25.7178 50.9189 25.4951C51.0771 25.2725 51.1592 25.0615 51.165 24.8623L51.833 25.9346C51.7393 26.1748 51.6104 26.4238 51.4463 26.6816C51.2881 26.9395 51.0859 27.1826 50.8398 27.4111C50.5938 27.6338 50.2979 27.8184 49.9521 27.9648C49.6064 28.1055 49.1963 28.1758 48.7217 28.1758C48.1182 28.1758 47.5703 28.0557 47.0781 27.8154C46.5918 27.5693 46.2051 27.2324 45.918 26.8047C45.6367 26.3711 45.4961 25.8789 45.4961 25.3281C45.4961 24.8301 45.5898 24.3877 45.7773 24.001C45.9648 23.6143 46.2402 23.2891 46.6035 23.0254C46.9727 22.7559 47.4326 22.5537 47.9834 22.4189C48.5342 22.2783 49.1729 22.208 49.8994 22.208H51.3672ZM60.1914 18.4902V20.2832H54.6543V18.4902H60.1914ZM56.0254 16.1436H58.5566V25.1348C58.5566 25.4102 58.5918 25.6211 58.6621 25.7676C58.7383 25.9141 58.8496 26.0166 58.9961 26.0752C59.1426 26.1279 59.3271 26.1543 59.5498 26.1543C59.708 26.1543 59.8486 26.1484 59.9717 26.1367C60.1006 26.1191 60.209 26.1016 60.2969 26.084L60.3057 27.9473C60.0889 28.0176 59.8545 28.0732 59.6025 28.1143C59.3506 28.1553 59.0723 28.1758 58.7676 28.1758C58.2109 28.1758 57.7246 28.085 57.3086 27.9033C56.8984 27.7158 56.582 27.417 56.3594 27.0068C56.1367 26.5967 56.0254 26.0576 56.0254 25.3896V16.1436ZM66.291 18.4902V20.2832H60.7539V18.4902H66.291ZM62.125 16.1436H64.6562V25.1348C64.6562 25.4102 64.6914 25.6211 64.7617 25.7676C64.8379 25.9141 64.9492 26.0166 65.0957 26.0752C65.2422 26.1279 65.4268 26.1543 65.6494 26.1543C65.8076 26.1543 65.9482 26.1484 66.0713 26.1367C66.2002 26.1191 66.3086 26.1016 66.3965 26.084L66.4053 27.9473C66.1885 28.0176 65.9541 28.0732 65.7021 28.1143C65.4502 28.1553 65.1719 28.1758 64.8672 28.1758C64.3105 28.1758 63.8242 28.085 63.4082 27.9033C62.998 27.7158 62.6816 27.417 62.459 27.0068C62.2363 26.5967 62.125 26.0576 62.125 25.3896V16.1436ZM72.8652 25.8555V21.6191C72.8652 21.3145 72.8154 21.0537 72.7158 20.8369C72.6162 20.6143 72.4609 20.4414 72.25 20.3184C72.0449 20.1953 71.7783 20.1338 71.4502 20.1338C71.1689 20.1338 70.9258 20.1836 70.7207 20.2832C70.5156 20.377 70.3574 20.5146 70.2461 20.6963C70.1348 20.8721 70.0791 21.0801 70.0791 21.3203H67.5479C67.5479 20.916 67.6416 20.5322 67.8291 20.1689C68.0166 19.8057 68.2891 19.4863 68.6465 19.2109C69.0039 18.9297 69.4287 18.71 69.9209 18.5518C70.4189 18.3936 70.9756 18.3145 71.5908 18.3145C72.3291 18.3145 72.9854 18.4375 73.5596 18.6836C74.1338 18.9297 74.585 19.2988 74.9131 19.791C75.2471 20.2832 75.4141 20.8984 75.4141 21.6367V25.7061C75.4141 26.2275 75.4463 26.6553 75.5107 26.9893C75.5752 27.3174 75.6689 27.6045 75.792 27.8506V28H73.2344C73.1113 27.7422 73.0176 27.4199 72.9531 27.0332C72.8945 26.6406 72.8652 26.248 72.8652 25.8555ZM73.1992 22.208L73.2168 23.6406H71.8018C71.4678 23.6406 71.1777 23.6787 70.9316 23.7549C70.6855 23.8311 70.4834 23.9395 70.3252 24.0801C70.167 24.2148 70.0498 24.373 69.9736 24.5547C69.9033 24.7363 69.8682 24.9355 69.8682 25.1523C69.8682 25.3691 69.918 25.5654 70.0176 25.7412C70.1172 25.9111 70.2607 26.0459 70.4482 26.1455C70.6357 26.2393 70.8555 26.2861 71.1074 26.2861C71.4883 26.2861 71.8193 26.21 72.1006 26.0576C72.3818 25.9053 72.5986 25.7178 72.751 25.4951C72.9092 25.2725 72.9912 25.0615 72.9971 24.8623L73.665 25.9346C73.5713 26.1748 73.4424 26.4238 73.2783 26.6816C73.1201 26.9395 72.918 27.1826 72.6719 27.4111C72.4258 27.6338 72.1299 27.8184 71.7842 27.9648C71.4385 28.1055 71.0283 28.1758 70.5537 28.1758C69.9502 28.1758 69.4023 28.0557 68.9102 27.8154C68.4238 27.5693 68.0371 27.2324 67.75 26.8047C67.4688 26.3711 67.3281 25.8789 67.3281 25.3281C67.3281 24.8301 67.4219 24.3877 67.6094 24.001C67.7969 23.6143 68.0723 23.2891 68.4355 23.0254C68.8047 22.7559 69.2646 22.5537 69.8154 22.4189C70.3662 22.2783 71.0049 22.208 71.7314 22.208H73.1992ZM79.8965 20.5645V28H77.3652V18.4902H79.7471L79.8965 20.5645ZM82.7617 18.4287L82.7178 20.7754C82.5947 20.7578 82.4453 20.7432 82.2695 20.7314C82.0996 20.7139 81.9443 20.7051 81.8037 20.7051C81.4463 20.7051 81.1357 20.752 80.8721 20.8457C80.6143 20.9336 80.3975 21.0654 80.2217 21.2412C80.0518 21.417 79.9229 21.6309 79.835 21.8828C79.7529 22.1348 79.7061 22.4219 79.6943 22.7441L79.1846 22.5859C79.1846 21.9707 79.2461 21.4053 79.3691 20.8896C79.4922 20.3682 79.6709 19.9141 79.9053 19.5273C80.1455 19.1406 80.4385 18.8418 80.7842 18.6309C81.1299 18.4199 81.5254 18.3145 81.9707 18.3145C82.1113 18.3145 82.2549 18.3262 82.4014 18.3496C82.5479 18.3672 82.668 18.3936 82.7617 18.4287Z" fill="white"/>
</svg>
