<svg width="101" height="44" viewBox="0 0 101 44" fill="none" xmlns="http://www.w3.org/2000/svg">
<path d="M18.5518 15.2031H21.1885V24.0625C21.1885 24.877 21.0068 25.5977 20.6436 26.2246C20.2861 26.8457 19.7793 27.3262 19.123 27.666C18.4668 28.0059 17.7256 28.1758 16.8994 28.1758C15.5459 28.1758 14.4912 27.833 13.7354 27.1475C12.9795 26.4561 12.6016 25.4805 12.6016 24.2207H15.2559C15.2559 24.8477 15.3877 25.3105 15.6514 25.6094C15.915 25.9082 16.3311 26.0576 16.8994 26.0576C17.4033 26.0576 17.8047 25.8848 18.1035 25.5391C18.4023 25.1934 18.5518 24.7012 18.5518 24.0625V15.2031ZM22.8848 23.1572C22.8848 22.2139 23.0664 21.373 23.4297 20.6348C23.793 19.8965 24.3145 19.3252 24.9941 18.9209C25.6797 18.5166 26.4736 18.3145 27.376 18.3145C28.6592 18.3145 29.7051 18.707 30.5137 19.4922C31.3281 20.2773 31.7822 21.3438 31.876 22.6914L31.8936 23.3418C31.8936 24.8008 31.4863 25.9727 30.6719 26.8574C29.8574 27.7363 28.7646 28.1758 27.3936 28.1758C26.0225 28.1758 24.9268 27.7363 24.1064 26.8574C23.292 25.9785 22.8848 24.7832 22.8848 23.2715V23.1572ZM25.4248 23.3418C25.4248 24.2441 25.5947 24.9355 25.9346 25.416C26.2744 25.8906 26.7607 26.1279 27.3936 26.1279C28.0088 26.1279 28.4893 25.8936 28.835 25.4248C29.1807 24.9502 29.3535 24.1943 29.3535 23.1572C29.3535 22.2725 29.1807 21.5869 28.835 21.1006C28.4893 20.6143 28.0029 20.3711 27.376 20.3711C26.7549 20.3711 26.2744 20.6143 25.9346 21.1006C25.5947 21.5811 25.4248 22.3281 25.4248 23.3418ZM35.9365 19.5273C36.6104 18.7188 37.457 18.3145 38.4766 18.3145C40.5391 18.3145 41.585 19.5127 41.6143 21.9092V28H39.0742V21.9795C39.0742 21.4346 38.957 21.0332 38.7227 20.7754C38.4883 20.5117 38.0986 20.3799 37.5537 20.3799C36.8096 20.3799 36.2705 20.667 35.9365 21.2412V28H33.3965V14.5H35.9365V19.5273ZM45.8682 18.4902L45.9473 19.5889C46.627 18.7393 47.5381 18.3145 48.6807 18.3145C49.6885 18.3145 50.4385 18.6104 50.9307 19.2021C51.4229 19.7939 51.6748 20.6787 51.6865 21.8564V28H49.1465V21.918C49.1465 21.3789 49.0293 20.9893 48.7949 20.749C48.5605 20.5029 48.1709 20.3799 47.626 20.3799C46.9111 20.3799 46.375 20.6846 46.0176 21.2939V28H43.4775V18.4902H45.8682ZM58.2695 28V15.2031H62.207C63.332 15.2031 64.3369 15.458 65.2217 15.9678C66.1123 16.4717 66.8066 17.1924 67.3047 18.1299C67.8027 19.0615 68.0518 20.1221 68.0518 21.3115V21.9004C68.0518 23.0898 67.8057 24.1475 67.3135 25.0732C66.8271 25.999 66.1387 26.7168 65.248 27.2266C64.3574 27.7363 63.3525 27.9941 62.2334 28H58.2695ZM60.9062 17.3389V25.8818H62.1807C63.2119 25.8818 64 25.5449 64.5449 24.8711C65.0898 24.1973 65.3682 23.2334 65.3799 21.9795V21.3027C65.3799 20.002 65.1104 19.0176 64.5713 18.3496C64.0322 17.6758 63.2441 17.3389 62.207 17.3389H60.9062ZM69.4141 23.1572C69.4141 22.2139 69.5957 21.373 69.959 20.6348C70.3223 19.8965 70.8438 19.3252 71.5234 18.9209C72.209 18.5166 73.0029 18.3145 73.9053 18.3145C75.1885 18.3145 76.2344 18.707 77.043 19.4922C77.8574 20.2773 78.3115 21.3438 78.4053 22.6914L78.4229 23.3418C78.4229 24.8008 78.0156 25.9727 77.2012 26.8574C76.3867 27.7363 75.2939 28.1758 73.9229 28.1758C72.5518 28.1758 71.4561 27.7363 70.6357 26.8574C69.8213 25.9785 69.4141 24.7832 69.4141 23.2715V23.1572ZM71.9541 23.3418C71.9541 24.2441 72.124 24.9355 72.4639 25.416C72.8037 25.8906 73.29 26.1279 73.9229 26.1279C74.5381 26.1279 75.0186 25.8936 75.3643 25.4248C75.71 24.9502 75.8828 24.1943 75.8828 23.1572C75.8828 22.2725 75.71 21.5869 75.3643 21.1006C75.0186 20.6143 74.5322 20.3711 73.9053 20.3711C73.2842 20.3711 72.8037 20.6143 72.4639 21.1006C72.124 21.5811 71.9541 22.3281 71.9541 23.3418ZM84.3643 28.1758C82.9697 28.1758 81.833 27.748 80.9541 26.8926C80.0811 26.0371 79.6445 24.8975 79.6445 23.4736V23.2275C79.6445 22.2725 79.8291 21.4199 80.1982 20.6699C80.5674 19.9141 81.0889 19.334 81.7627 18.9297C82.4424 18.5195 83.2158 18.3145 84.083 18.3145C85.3838 18.3145 86.4062 18.7246 87.1504 19.5449C87.9004 20.3652 88.2754 21.5283 88.2754 23.0342V24.0713H82.2197C82.3018 24.6924 82.5479 25.1904 82.958 25.5654C83.374 25.9404 83.8984 26.1279 84.5312 26.1279C85.5098 26.1279 86.2744 25.7734 86.8252 25.0645L88.0732 26.4619C87.6924 27.001 87.1768 27.4229 86.5264 27.7275C85.876 28.0264 85.1553 28.1758 84.3643 28.1758ZM84.0742 20.3711C83.5703 20.3711 83.1602 20.541 82.8438 20.8809C82.5332 21.2207 82.334 21.707 82.2461 22.3398H85.7793V22.1377C85.7676 21.5752 85.6152 21.1416 85.3223 20.8369C85.0293 20.5264 84.6133 20.3711 84.0742 20.3711Z" fill="white"/>
</svg>
