<svg width="20" height="20" viewBox="0 0 20 20" fill="none" xmlns="http://www.w3.org/2000/svg">
<g clip-path="url(#clip0_48_285)">
<path d="M9.4645 20C14.1612 20 17.0837 16.5392 17.0837 12.0742C17.0837 10.3908 16.8095 8.87083 14.8987 8.41417C15.3637 7.14083 16.7053 3.4575 16.7053 2.2775C16.7053 1.23833 16.0803 0.3675 14.9662 0.3675C13.1903 0.3675 11.5987 5.51167 11.1003 6.73833C10.7145 5.625 8.90783 0 7.31533 0C6.07783 0 5.497 0.894167 5.497 2.01917C5.497 3.39833 6.85783 6.9725 7.35116 8.3475C7.10116 8.2575 6.83033 8.17917 6.5545 8.17917C5.62283 8.17917 4.632 9.31583 4.632 10.2342C4.632 10.5817 4.827 11.07 4.95033 11.3942C3.482 11.785 2.917 12.7458 2.917 14.195C2.91283 17.015 5.63616 20 9.4645 20ZM13.4895 4.21917C13.6495 3.73833 14.3295 1.7075 14.9662 1.7075C15.3087 1.7075 15.4003 2.055 15.4003 2.3325C15.4003 3.07833 13.8645 7.2 13.5253 8.11333L12.172 7.87917L13.4895 4.21917ZM6.747 1.8875V1.88667C6.747 1.42167 7.3245 0.101667 8.5895 3.72667L9.967 7.645C9.34616 7.59417 8.8645 7.5275 8.55866 7.7C8.1245 6.575 6.747 3.02417 6.747 1.8875ZM6.65533 9.53083L6.65616 9.53167C7.822 9.53167 9.327 13.2267 9.327 13.7267C9.327 13.9258 9.132 14.1717 8.90533 14.1717C8.07283 14.1717 5.84366 11.1675 5.84366 10.355C5.847 10.0542 6.34866 9.53083 6.65533 9.53083ZM5.31533 12.5892C5.76866 12.5892 7.47616 14.945 7.47616 15.445C7.47616 15.6367 7.1695 15.7692 7.01116 15.7692C6.37033 15.7692 6.1195 15.1633 4.97783 13.7617C3.79533 14.9217 5.79366 17.1558 7.29866 17.1558C8.337 17.1558 9.01366 16.2108 8.81116 15.515C8.95866 15.515 9.14116 15.5267 9.277 15.4917C9.32116 16.55 9.6395 17.8117 10.937 17.9017C10.937 17.8667 11.017 17.6242 11.017 17.6125C11.017 16.9325 10.5953 16.3392 10.5953 15.6475C10.5953 14.5417 11.4587 13.4717 12.3345 12.8467C12.6528 12.6125 13.0395 12.4675 13.4128 12.335C13.7995 12.1908 14.2095 12.0225 14.5028 11.7333C14.4587 11.2958 14.2762 10.9092 13.8303 10.9092C12.7278 10.9092 9.03033 11.0658 9.03033 9.35833C9.03033 9.09667 9.0345 8.84667 9.72366 8.84667C11.0095 8.84667 14.2737 9.15917 15.2287 9.98333C15.9487 10.6125 16.1962 14.405 13.9945 16.8075L13.992 16.8083C12.8337 18.0583 11.3528 18.7067 9.62533 18.7067C7.26116 18.7067 5.39366 17.4333 4.4945 15.2575C3.81366 13.5625 4.64616 12.5892 5.31533 12.5892ZM10.0662 11.8858C10.4537 12.0075 10.8512 12.0433 11.2495 12.1208C10.9545 12.3317 10.6928 12.59 10.4412 12.8667C10.3295 12.535 10.1937 12.2108 10.0662 11.8858Z" fill="#505F79"/>
</g>
<defs>
<clipPath id="clip0_48_285">
<rect width="20" height="20" fill="white"/>
</clipPath>
</defs>
</svg>
